<svg width="249.99999999999997" height="211" xmlns="http://www.w3.org/2000/svg">
 <!-- Created with Method Draw - http://github.com/duopixel/Method-Draw/ -->

 <g>
  <title>Layer 1</title>
  <g id="svg_24">
   <g transform="matrix(2.03452, 0, 0, 2.03452, 0, 0)" id="svg_22">
    <path fill="#ffffff" id="svg_23" d="m10.36719,0.00025l102.144,0c5.703,0 10.367,4.665 10.367,10.367l0,0c0,5.702 -4.664,10.368 -10.367,10.368l-102.144,0c-5.702,0 -10.368,-4.665 -10.368,-10.367l0,0c0,-5.703 4.666,-10.368 10.368,-10.368l0,0zm0,82.875l102.144,0c5.703,0 10.367,4.665 10.367,10.367l0,0c0,5.702 -4.664,10.367 -10.367,10.367l-102.144,0c-5.702,0 -10.368,-4.665 -10.368,-10.367l0,0c0,-5.702 4.666,-10.367 10.368,-10.367l0,0zm0,-41.437l102.144,0c5.703,0 10.367,4.665 10.367,10.367l0,0c0,5.702 -4.664,10.368 -10.367,10.368l-102.144,0c-5.702,0 -10.368,-4.666 -10.368,-10.368l0,0c0,-5.702 4.666,-10.367 10.368,-10.367l0,0z" clip-rule="evenodd" fill-rule="evenodd"/>
   </g>
  </g>
 </g>
</svg>