<svg width="200" height="155" xmlns="http://www.w3.org/2000/svg">
 <!-- Created with Method Draw - http://github.com/duopixel/Method-Draw/ -->

 <g>
  <title>background</title>
  <rect fill="none" id="canvas_background" height="157" width="202" y="-1" x="-1"/>
  <g display="none" overflow="visible" y="0" x="0" height="100%" width="100%" id="canvasGrid">
   <rect fill="url(#gridpattern)" stroke-width="0" y="0" x="0" height="100%" width="100%"/>
  </g>
 </g>
 <g>
  <title>Layer 1</title>
  <g id="svg_24">
   <g transform="matrix(0.530025, 0, 0, 0.530025, 0, 0)" id="svg_5">
    <g id="svg_6">
     <path id="svg_7" fill="#ffffff" d="m200.631,193.90711c-6.353,6.358 -6.358,16.709 0,23.094c3.079,3.079 7.174,4.776 11.536,4.776s8.452,-1.692 11.547,-4.776l59.362,-59.346c1.474,-1.507 2.643,-3.263 3.519,-5.347c0.805,-1.996 1.218,-4.063 1.218,-6.168c0,-2.105 -0.408,-4.172 -1.273,-6.315c-0.843,-1.985 -2.023,-3.742 -3.514,-5.227l-59.313,-59.313c-3.079,-3.084 -7.18,-4.781 -11.547,-4.781c-4.368,0 -8.469,1.702 -11.536,4.781c-6.364,6.364 -6.364,16.72 0,23.083l31.449,31.449l-215.762,0c-8.996,0.001 -16.317,7.328 -16.317,16.319s7.321,16.317 16.317,16.317l215.762,0l-31.448,31.454z"/>
     <path id="svg_8" fill="#ffffff" d="m322.95,-0.00089l-183.498,0c-30.002,0 -54.402,24.4 -54.402,54.391l0.033,57.698l3.263,0c2.986,3.987 7.74,6.587 13.032,6.587c5.45,0 10.231,-2.605 13.184,-6.668l3.138,-0.044l0,-57.574c0,-11.982 9.758,-21.74 21.751,-21.74l183.499,0c11.988,0 21.751,9.758 21.751,21.74l0,183.503c0,11.993 -9.763,21.74 -21.751,21.74l-183.498,0c-11.993,0 -21.751,-9.747 -21.751,-21.74l-0.027,-57.725l-3.274,0c-2.986,-3.981 -7.74,-6.57 -13.027,-6.57c-5.325,0 -10.106,2.627 -13.086,6.663l-3.242,0.049l0,57.583c0,29.986 24.4,54.385 54.402,54.385l183.503,0c29.996,0 54.391,-24.4 54.391,-54.385l0,-183.503c0,-29.991 -24.395,-54.39 -54.391,-54.39z"/>
    </g>
   </g>
   <g transform="matrix(0.530025, 0, 0, 0.530025, 0, 0)" id="svg_9"/>
   <g transform="matrix(0.530025, 0, 0, 0.530025, 0, 0)" id="svg_10"/>
   <g transform="matrix(0.530025, 0, 0, 0.530025, 0, 0)" id="svg_11"/>
   <g transform="matrix(0.530025, 0, 0, 0.530025, 0, 0)" id="svg_12"/>
   <g transform="matrix(0.530025, 0, 0, 0.530025, 0, 0)" id="svg_13"/>
   <g transform="matrix(0.530025, 0, 0, 0.530025, 0, 0)" id="svg_14"/>
   <g transform="matrix(0.530025, 0, 0, 0.530025, 0, 0)" id="svg_15"/>
   <g transform="matrix(0.530025, 0, 0, 0.530025, 0, 0)" id="svg_16"/>
   <g transform="matrix(0.530025, 0, 0, 0.530025, 0, 0)" id="svg_17"/>
   <g transform="matrix(0.530025, 0, 0, 0.530025, 0, 0)" id="svg_18"/>
   <g transform="matrix(0.530025, 0, 0, 0.530025, 0, 0)" id="svg_19"/>
   <g transform="matrix(0.530025, 0, 0, 0.530025, 0, 0)" id="svg_20"/>
   <g transform="matrix(0.530025, 0, 0, 0.530025, 0, 0)" id="svg_21"/>
   <g transform="matrix(0.530025, 0, 0, 0.530025, 0, 0)" id="svg_22"/>
   <g transform="matrix(0.530025, 0, 0, 0.530025, 0, 0)" id="svg_23"/>
  </g>
 </g>
</svg>